<?xml version="1.0" encoding="utf-8"?>
<!-- Generator: Adobe Illustrator 16.0.0, SVG Export Plug-In . SVG Version: 6.00 Build 0)  -->
<!DOCTYPE svg PUBLIC "-//W3C//DTD SVG 1.1//EN" "http://www.w3.org/Graphics/SVG/1.1/DTD/svg11.dtd" [
	<!ENTITY ns_flows "http://ns.adobe.com/Flows/1.0/">
	<!ENTITY ns_extend "http://ns.adobe.com/Extensibility/1.0/">
	<!ENTITY ns_ai "http://ns.adobe.com/AdobeIllustrator/10.0/">
	<!ENTITY ns_graphs "http://ns.adobe.com/Graphs/1.0/">
]>
<svg version="1.1" id="Camada_1" xmlns:x="&ns_extend;" xmlns:i="&ns_ai;" xmlns:graph="&ns_graphs;"
	 xmlns="http://www.w3.org/2000/svg" xmlns:xlink="http://www.w3.org/1999/xlink" xmlns:a="http://ns.adobe.com/AdobeSVGViewerExtensions/3.0/"
	 x="0px" y="0px" width="50px" height="50px" viewBox="0 0 50 50" enable-background="new 0 0 50 50" xml:space="preserve">
<path fill="#FFFFFF" d="M47.679,6.215c-1.909,1.133-4.011,1.949-6.258,2.391c-1.8-1.914-4.354-3.109-7.189-3.109
	c-5.437,0-9.847,4.411-9.847,9.848c0,0.774,0.085,1.524,0.255,2.246C16.456,17.177,9.195,13.257,4.34,7.297
	c-0.848,1.455-1.333,3.147-1.333,4.954c0,3.416,1.74,6.432,4.38,8.196c-1.613-0.051-3.132-0.495-4.459-1.231
	c-0.001,0.04-0.001,0.083-0.001,0.125c0,4.774,3.393,8.753,7.899,9.658c-0.825,0.226-1.697,0.343-2.595,0.343
	c-0.633,0-1.251-0.063-1.852-0.178c1.253,3.915,4.891,6.761,9.2,6.84c-3.372,2.641-7.616,4.217-12.231,4.217
	c-0.795,0-1.579-0.048-2.35-0.139c4.357,2.796,9.535,4.422,15.097,4.422c18.119,0,28.023-15.002,28.023-28.017
	c0-0.428-0.011-0.855-0.029-1.278c1.924-1.384,3.596-3.12,4.908-5.092c-1.761,0.785-3.662,1.312-5.657,1.549
	C45.381,10.445,46.937,8.516,47.679,6.215z"/>
</svg>
